<?xml version="1.0" standalone="no"?>
<!DOCTYPE svg PUBLIC "-//W3C//DTD SVG 1.1//EN" "http://www.w3.org/Graphics/SVG/1.1/DTD/svg11.dtd">
<svg xmlns="http://www.w3.org/2000/svg" width="422" height="294" viewBox="0 0 422 294"><path fill="#CEF0F9" stroke="#CEF0F9" d="m372.5 13-1 2 1-2ZM365.5 18l-1 2 1-2ZM361.5 21l-1 2 1-2ZM357.5 24l-1 2 1-2ZM352.5 28l-2 3 2-3ZM345.5 34l-3 4 3-4ZM387.5 34l-1 2 1-2ZM385.5 37l-1 2 1-2ZM390.5 40l2 3-2-3ZM381.5 42l-2 3 2-3ZM386.5 42l-2 3 2-3ZM376.5 48l-2 3 2-3ZM380.5 49l-3 4 3-4ZM253.5 54l10.5.5-10.5.5v-1ZM370.5 55l-3 4 3-4ZM323.5 56l-3 4 3-4ZM277.5 59l2 3-2-3ZM370.5 60l-10 11 10-11ZM251.5 62l4.5.5-4.5.5v-1ZM261.5 62l3.5.5-3.5.5v-1ZM317.5 63l-1 2 1-2ZM363.5 63l-4 5 4-5ZM314.5 67l-1 2 1-2ZM384.5 72l-1 2 1-2ZM353.5 74q3.5 2-1 4-1.2-2.2-2.5.5l-1.5 2.5-2 1 7-8ZM382.5 75l-1 2 1-2ZM269.5 77l-1 2 1-2ZM383.5 79l-2 3 2-3ZM378.5 80l-1 2 1-2ZM263.5 82l-1 2 1-2ZM275.5 82l-3 4 3-4ZM305.5 84l.5 2.5h-1l.5-2.5ZM160.5 87l-1 2 1-2ZM372.5 87 358 102.5q2.3 1.3-.5 2.5-1.2-2.2-2.5.5l-1.5 2.5-.5-1.5L372.5 87ZM268.5 88l-1 2 1-2ZM306.5 88l1 2-1-2ZM156.5 90l-1 2 1-2ZM264.5 91l-1 2 1-2ZM261.5 93l-1 2 1-2ZM161.5 96l-1 2 1-2ZM365.5 97l-3 4 3-4ZM318.5 99l1 2-1-2ZM381.5 101l-1 2 1-2ZM376.5 108l-1 2 1-2ZM372.5 113l-2 3 2-3ZM304.5 115l1 2-1-2ZM175.5 116l2.5.5-2.5.5v-1ZM307.5 117l1 2-1-2ZM145.5 118l2 3-2-3ZM255.5 120l-1 2 1-2ZM311.5 120l3 4-3-4ZM366.5 120l-13 14 13-14ZM251.5 123l-1 2 1-2ZM307.5 127l2 3-2-3ZM256.5 129l-1 2 1-2ZM323.5 132l3 4-3-4ZM51.5 133l4.5.5-4.5.5v-1ZM82.5 133l4.5.5-4.5.5v-1ZM251.5 133l-1 2 1-2ZM39.5 134l2.5.5-2.5.5v-1ZM95.5 134l2.5.5-2.5.5v-1ZM247.5 136l-1 2 1-2ZM316.5 136l4 5-4-5ZM347.5 138l-1 2 1-2ZM14.5 139l-1 2 1-2ZM211.5 140l3.5.5-3.5.5v-1ZM194.5 141l2.5.5-2.5.5v-1ZM342.5 142l-1 2 1-2ZM323.5 144l1 2-1-2ZM279.5 147l-2 3 2-3ZM289.5 147l2 3-2-3ZM17.5 148l1 2-1-2ZM208.5 148l5.5.5-5.5.5v-1ZM336.5 148l1 2-1-2ZM338.5 151l1 2-1-2ZM168.5 152l-3 4 3-4ZM309.5 156l1 2-1-2ZM172.5 159l-1 2 1-2ZM334.5 159l1 2-1-2ZM283.5 163l2.5.5-2.5.5v-1ZM296.5 163l.5 2.5h-1l.5-2.5ZM77.5 166l2.5.5-2.5.5v-1ZM84.5 167l2.5.5-2.5.5v-1ZM269.5 168l-2 3 2-3ZM77.5 169l2.5.5-2.5.5v-1ZM137.5 169l.5 2.5h-1l.5-2.5ZM312.5 169l-2 3 2-3ZM341.5 170l1 2-1-2ZM45.5 173l4 5-4-5ZM283.5 173l.5 4.5h-1l.5-4.5ZM293.5 176l4.5.5-4.5.5v-1ZM301.5 178l1 2-1-2ZM155.5 180l.5 2.5h-1l.5-2.5ZM267.5 180l2 3-2-3ZM221.5 188l1.5 2.5h-1l-.5-2.5ZM162.5 189l.5 3.5h-1l.5-3.5ZM84.5 190l2.5.5-2.5.5v-1ZM154.5 190l.5 6.5h-1l.5-6.5ZM288.5 190l2 3-2-3ZM302.5 190l-2 3 2-3ZM92.5 191l2.5.5-2.5.5v-1ZM70.5 192l.5 2.5h-1l.5-2.5ZM102.5 192l3.5.5-3.5.5v-1ZM86.5 193l2.5.5-2.5.5v-1ZM146.5 194l1 2-1-2ZM162.5 207l.5 5.5h-1l.5-5.5ZM367.5 209l.5 2.5h-1l.5-2.5ZM199.5 210l1 2-1-2ZM114.5 212l2.5.5-2.5.5v-1ZM124.5 213l3.5.5-3.5.5v-1ZM367.5 215l.5 2.5h-1l.5-2.5ZM359.5 216l.5 2.5h-1l.5-2.5ZM155.5 220l.5 2.5h-1l.5-2.5ZM163.5 221l.5 2.5h-1l.5-2.5ZM204.5 221l2.5 1.5-1.5.5-1-2ZM276.5 222l2.5.5-2.5.5v-1ZM289.5 222l2.5.5-2.5.5v-1ZM356.5 225l-4 5 4-5ZM275.5 230l2.5.5-2.5.5v-1ZM290.5 230l2.5.5-2.5.5v-1ZM362.5 230l-1 2 1-2ZM336.5 233l4.5.5-4.5.5v-1ZM358.5 234l-1 2 1-2ZM244.5 235l-2 3 2-3ZM248.5 242l-1 2 1-2ZM233.5 246l-2 3 2-3ZM229.5 251l-1 2 1-2ZM239.5 251l-1 2 1-2ZM226.5 255l-1 2 1-2ZM235.5 256l-1 2 1-2ZM224.5 258l-1 2 1-2ZM213.5 275l-6 7 6-7ZM222.5 276l-1 2 1-2ZM219.5 280l-2 3 2-3ZM170.5 281l1 2-1-2ZM214.5 285l-2 3 2-3ZM174.5 286l1 2-1-2Z"/><path fill="#FEFFFF" stroke="#FEFFFF" d="m347.5 32-1 2 1-2ZM337.5 41l-11 12 11-12ZM383.5 45l-1 2 1-2ZM376.5 53l-2 3 2-3ZM365.5 61l-1 2 1-2ZM420.5 63q3-.8 1.5 3l-4 1.5-5.5 8.5.5-1.5q1.4-8.1 7.5-11.5ZM356.5 71l.5 2.5-1.5 1.5q-3.5-2 1-4ZM380.5 82l-2 3 2-3ZM374.5 85l-1 2 1-2ZM271.5 86l-1 2 1-2ZM412.5 90l1.5 1.5-1 3 1 2v2l-.5 1.5q-3.1-3.1-1-10ZM152.5 93l-4 5 4-5ZM367.5 95l-1 2 1-2ZM159.5 98l-1 2 1-2ZM408.5 113l-.5 1.5-7.5 8.5-13 9 5-6 16-13ZM368.5 118l-1 2 1-2ZM310.5 130l5 6-5-6ZM352.5 134l-1 2 1-2ZM345.5 140l-1 2 1-2ZM136.5 144l2 3-2-3ZM365.5 155l1.5 12.5 7.5 10.5 3.5 1v2.5l9 12-5-4-14-17-3-6-1-7 1.5-4.5ZM299.5 157l-1 2 1-2ZM277.5 160l1 2-1-2ZM280.5 168l1 2-1-2ZM289.5 178l-1 2 1-2ZM281.5 181l-1 2 1-2ZM148.5 196l4 5-4-5ZM71.5 197l2 3-2-3ZM225.5 200l-1 2 1-2ZM238.5 240l-2 3 2-3ZM246.5 244l-6 7 6-7ZM172.5 284l1 2-1-2Z"/><path fill="#FFF" stroke="#FFF" d="M0 0h421.5l.5.5V63l-7 5.5-2 6h1l5.5-8.5 2.5.5V294l-220-.5q12.4-4.1 19-14 11-23 29.5-38.5l18-9 10-2h11l19 4 21 7h17q11.9-2.6 17.5-11.5l4-11v-9l-5-17-9-18-17-27q17.8-12.7 32-29l15-20 5-11v-8l-1-2.5h-2.5l-7.5 7.5-9.5 10.5-12 10L375 85.5q9.6-10.4 16-24l3-9v-8l-3.5-4.5h-2l-6.5 6.5L357.5 73l-7 6 6.5-7.5 33-40 8-16q2.9-4.6 2-13-1.5-3-7.5-1.5-38.1 20.9-66.5 51.5l-14 17-6 11-1 6 3.5 4.5 8.5 6.5q7.1 7.9 11 19l2 9v9l-1.5 3.5-18-19-17-9h-15l-17 6-17 13-14 8-10 3-26 1-9 2q-13.4 4.1-21.5 13.5-5.7 7.8-8 19l-2.5 25.5q-16.7-12.2-16.5-41.5l3-11-3.5-4.5-15-6-23-4h-11l-1-1h-36l-1 1h-10l-1 1-18 2-6 2-2.5 2.5 2 5.5 11.5 7 15 6 37 7 21.5 2.5-18.5.5-1-1h-8l-1-1h-7l-13-3H44v6.5l6.5 7.5 11 6 17 5 13 1 1 1h9l1 1 15.5.5-28.5.5-1-1h-8l-9-2-1.5 3.5 3.5 5.5 11 6 23 6 16 1 1 1H155l1 17.5 7 34q3.6 14.9 13.5 23.5l8.5 4.5L0 294V0Zm253 54-1 1h-8l-15 3-26 8-31 14-19 13-10 13q-1 9 2 13l6 4 7 2h20l28-6 37-14 28-17 9-10 2-5q1-8-2-11-4-5-10-7l-17-1Zm160 36-1 8 2-1-1-2 1-3-1-2Zm-5 24-15 12-2 3q10-5 17-13v-2Zm-42 41-2 5 1 7 3 6 3 2-4-7-1-13Zm8 23 8 12 3 2-7-10v-3l-4-1Z"/><path fill="#FFF" stroke="#FFF" d="m256.5 62 11 1 5.5 3.5 1 3q-2.6 7.4-8.5 11.5l-20 13-30 13-34 9-22 1-6-2-2.5-2.5q.3-9.2 6.5-12.5l19-13 26-12 33-10 11-2h9l1-1ZM280.5 118h10l11 5 20.5 19.5q13.9 17.1 25 37l9 18 3 9 1 9-3 9-5.5 5.5q-6.6 4.9-20 3l-28-9-11-1-1-1h-15l-10 2-13 5-17.5 13.5q-12.8 14.2-22 32l-7.5 7.5q-5 5-15 5-8.3-1.7-12.5-7.5l-5-8-8-30-2-20-1-1-1-27 4-23q2.5-8 8.5-12.5l17-8 31-2 11-3q17.7-8.3 31-21l16-6Zm1.5 28-6 5q-1 6 1 10l7 3 7-2 2-3v-8q-2-6-11-5Zm23 9-5 2-4 6q0 8 6 10l9-1 3-4-1-8-3-4-5-1Zm-34 12-5 6 1 8 5 3 9-1 3-5q1-6-2-8-3-5-11-3Zm23 9-4 2-3 4 1 9 5 3q9 1 11-4 1-7-1-10-2-5-9-4Zm-94 4-9 5 4 12-12 4v5l3 8h6l8-3 6 12 11-4v-5l-3-9 12-4v-3l-4-10-14 3-3-9q-1-3-5-2Z"/><path fill="#5FD1EF" stroke="#5FD1EF" d="m399.5 3 .5 4.5h-1l.5-4.5ZM367.5 17l-1 2 1-2ZM359.5 23l-1 2 1-2ZM355.5 26l-2 3 2-3ZM349.5 31l-2 3 2-3ZM341.5 38l-17 18 17-18ZM383.5 39l-2 3 2-3ZM388.5 40l1.5.5-2.5 1.5 1-2ZM378.5 45l-2 3 2-3ZM393.5 45l.5 4.5h-1l.5-4.5ZM383.5 46l-2 3 2-3ZM373.5 51l-3 4 3-4ZM376.5 54l-5 6 5-6ZM246.5 55l3.5.5-3.5.5v-1ZM366.5 59l-3 4 3-4ZM320.5 60l-2 3 2-3ZM247.5 62l3.5.5-3.5.5v-1ZM241.5 63l2.5.5-2.5.5v-1ZM281.5 67l.5 3.5h-1l.5-3.5ZM358.5 68l-4 5 4-5ZM313.5 69l-1 2 1-2ZM359.5 71l-4 5 4-5ZM271.5 75l-1 2 1-2ZM380.5 77l-1 2 1-2ZM385.5 77l2.5 1.5-1.5-.5-2 1 1-2ZM351.5 78l-1 2 1-2ZM267.5 79l-2 3 2-3ZM277.5 79l-1 2 1-2ZM347.5 81l-1 2-1.5-.5 2.5-1.5ZM376.5 82l-3 4 3-4ZM380.5 83l-14 15 14-15ZM271.5 85l-2 3 2-3ZM162.5 86l-1 2 1-2ZM154.5 92l-7 8 7-8ZM166.5 92l-1 2 1-2ZM312.5 92l6 7-6-7ZM158.5 98l-5 6 5-6ZM320.5 101l1 2-1-2ZM361.5 101l-1 2 1-2ZM356.5 105l-1 2 1-2ZM377.5 106l-1 2 1-2ZM351.5 107l1 2-1.5-.5-1.5 2.5-1.5-.5 3.5-3.5ZM150.5 108l.5 3.5h-1l.5-3.5ZM280.5 110l3.5.5-3.5.5v-1ZM289.5 110l2.5.5-2.5.5v-1ZM374.5 110l-1 2 1-2ZM151.5 113l1 2-1-2ZM144.5 116l1 2-1-2ZM178.5 116l2.5.5-2.5.5v-1ZM369.5 116l-3 4 3-4ZM160.5 117l12.5.5-12.5.5v-1ZM281.5 117l8.5.5-8.5.5v-1ZM257.5 119l-1 2 1-2ZM309.5 119l1 2-1-2ZM148.5 120l1 2-1-2ZM253.5 122l-1 2 1-2ZM301.5 122l1 2-1-2ZM179.5 123l2.5.5-2.5.5v-1ZM159.5 124l15.5.5-15.5.5v-1ZM315.5 124l7 8-7-8ZM249.5 125l-1 2 1-2ZM261.5 125l-1 2 1-2ZM305.5 125l1 2-1-2ZM330.5 127l.5 5.5h-1l.5-5.5ZM245.5 128l-1 2 1-2ZM311.5 130l5 6-5-6ZM253.5 131l-1 2 1-2ZM56.5 133l25.5.5-25.5.5v-1ZM352.5 133l-4 5 4-5ZM42.5 134l4.5.5-4.5.5v-1ZM90.5 134l4.5.5-4.5.5v-1ZM249.5 134l-1 2 1-2ZM33.5 135l3.5.5-3.5.5v-1ZM101.5 135l2.5.5-2.5.5v-1ZM27.5 136l2.5.5-2.5.5v-1ZM327.5 137l2.5 1.5-1.5.5-1-2ZM215.5 140l3.5.5-3.5.5v-1ZM344.5 140l-1 2 1-2ZM197.5 141l6.5.5-6.5.5v-1ZM321.5 141l1 2-1-2ZM13.5 144l3 4-3-4ZM135.5 144l3 4-3-4ZM339.5 144l-1 2 1-2ZM282.5 146l4.5.5-4.5.5v-1ZM325.5 146l1 2-1-2ZM217.5 147l3.5.5-3.5.5v-1ZM199.5 148l8.5.5-8.5.5v-1ZM328.5 150l1 2-1-2ZM170.5 151l-1 2 1-2ZM339.5 153l1 2-1-2ZM331.5 154l1 2-1-2ZM341.5 156l1 2-1-2ZM164.5 157l-1 2 1-2ZM174.5 157l-1 2 1-2ZM333.5 157l1 2-1-2ZM277.5 159l2 3-2-3ZM291.5 159l-2 3 2-3ZM343.5 159l1 2-1-2ZM170.5 161l-1 2 1-2ZM136.5 162l.5 3.5h-1l.5-3.5ZM313.5 162l.5 4.5h-1l.5-4.5ZM337.5 163l1 2-1-2ZM73.5 165l2.5.5-2.5.5v-1ZM80.5 166l2.5.5-2.5.5v-1ZM58.5 167l2.5.5-2.5.5v-1ZM87.5 167l2.5.5-2.5.5v-1ZM65.5 168l2.5.5-2.5.5v-1ZM94.5 168l3.5.5-3.5.5v-1ZM279.5 168l2 3-2-3ZM73.5 169l3.5.5-3.5.5v-1ZM102.5 169q4.8-1.3 3.5 2l-23-.5 18.5-.5 1-1ZM298.5 169l2 3-2-3ZM266.5 173l.5 4.5h-1l.5-4.5ZM50.5 177l1 2-1-2ZM299.5 177l1 2-1-2ZM290.5 178l-2 3 2-3ZM281.5 180l-2 3 2-3ZM155.5 183l.5 3.5h-1l.5-3.5ZM162.5 184l.5 4.5h-1l.5-4.5ZM80.5 189l2.5.5-2.5.5v-1ZM87.5 190l2.5.5-2.5.5v-1ZM95.5 191l3.5.5-3.5.5v-1ZM75.5 192l2.5.5-2.5.5v-1ZM106.5 192l6.5.5-6.5.5v-1ZM82.5 193l3.5.5-3.5.5v-1ZM119.5 193l3.5.5-3.5.5v-1ZM294.5 193l3.5.5-3.5.5v-1ZM92.5 194l23.5.5-23.5.5v-1ZM71.5 196l4 5-4-5ZM195.5 196l-1 2 1-2ZM148.5 197l3 4-3-4ZM154.5 197l.5 5.5h-1l.5-5.5ZM110.5 211l2.5.5-2.5.5v-1ZM117.5 212l3.5.5-3.5.5v-1ZM186.5 212l1 2-1-2ZM367.5 212l.5 2.5h-1l.5-2.5ZM128.5 213l25.5.5-25.5.5v-1ZM162.5 213l.5 4.5h-1l.5-4.5ZM155.5 215l.5 4.5h-1l.5-4.5ZM279.5 222l9.5.5-9.5.5v-1ZM294.5 223l2.5.5-2.5.5v-1ZM163.5 224l.5 3.5h-1l.5-3.5ZM156.5 225l.5 3.5h-1l.5-3.5ZM281.5 229l5.5.5-5.5.5v-1ZM293.5 230l2.5.5-2.5.5v-1ZM164.5 232l.5 2.5h-1l.5-2.5ZM360.5 232l-1 2 1-2ZM157.5 233l.5 2.5h-1l.5-2.5ZM332.5 233l3.5.5-3.5.5v-1ZM341.5 233l2.5.5-2.5.5v-1ZM246.5 234l-1 2 1-2ZM165.5 238l.5 2.5h-1l.5-2.5ZM241.5 238l-7 8 7-8ZM250.5 240l-1 2 1-2ZM331.5 240l2.5.5-2.5.5v-1ZM245.5 244l-5 6 5-6ZM159.5 245l.5 2.5h-1l.5-2.5ZM231.5 249l-1 2 1-2ZM237.5 253l-1 2 1-2ZM178.5 279l4 5-4-5ZM172.5 283l2 3-2-3ZM216.5 283l-1 2 1-2ZM176.5 287l2 3-2-3Z"/><path fill="#26C2EB" stroke="#26C2EB" d="m395.5 1 3.5 1.5v8l-3 8-11 19-40 45 1.5.5q17.1-12.4 30.5-28.5L388.5 41q4-.5 4.5 2.5l-1 13-6 13q-14.4 21.1-33.5 37.5l-4.5 3.5 1.5.5q17.7-11.8 31.5-27.5l4.5-5.5 2.5 1.5 1 4q-2.8 12.7-10 21L353.5 133 336 147.5q15.4 21.6 27 47l4 13v12q-2.4 11.1-10.5 16.5-7.8 5.7-22 5l-10-2-24-8-19-2-18 4q-14.2 5.8-23.5 16.5l-20 30-8.5 8.5q-7.3 7.2-23 6l-8-3-5.5-4-8-12.5-4-12-5-23-2-24-1-2.5h-33.5l-1-1-19-2-20-6-10.5-8.5q-1.7-5.2 3.5-3.5l8 2h9l1 1h23l7.5-1.5-32.5-2.5-21-4q-14.7-3.8-23.5-13.5l-2-6 1.5-2.5 28 5 32.5 1-.5-2h-7l-1-1-28-3-26-5-22-9-8.5-7.5 1.5-3.5 10-3 12-1 1-1h9l1-1h42l1 1 17 1 18 4q8.9 2.1 13.5 8.5l-3 17 4 19q4.3 9.8 11.5 16.5l3 2 .5-15.5 3-17q2.9-11.1 10.5-17.5 8-7 20-10l15-1 1-1h14l12-3 8-4q12.9-11.6 29-20l10-3 11-1q11.6 1.9 19 8l19.5 18.5 1.5 2.5q2.8.6 1.5-5.5 2.3-1.2 1-6-2.5-1.5-1-7l-5-13L312.5 92l-6.5-4.5 1-7 9-15L346.5 34q21.5-19.5 49-33ZM282 117l-15 5-30 21-20 5-24 1q-11 2-18 8-6 4-9 12l-4 16v33l1 1v9l1 1 1 12 7 28 6 11q4 5 11 7 12 2 18-4l8-8 17-26q14-21 43-26h19q1 2 6 1l33 10q12 2 19-3 6-4 8-11l-1-16-11-24q-13-25-31-44l-15-14-12-5h-8Z"/><path fill="#26C2EB" stroke="#26C2EB" d="M250.5 55h15l5 1 8.5 5.5q3.3 3.7 2 12L272.5 85l-20 14-34 15-33 9q-5.5-1.5-7 1h-22q-6.7-1.2-10.5-5.5-3-3-3-9l3-8L157.5 90q18.6-13.4 42-22l21-7 30-6Zm-2.5 7q-54 9-89 36l-9 11 1 5 10 4h12l1-1h7l10-2 30-9 32-15 13-9q6-4 9-12l-1-3-7-5h-19ZM280.5 147q9.5-2 11.5 3.5l1 5-4.5 6.5-6 1-5.5-4.5-1-5 4.5-6.5ZM303.5 156q7.9-.9 9.5 4.5 1.5 8-2.5 10.5l-6 2-6.5-4.5-1-6 2-4.5 4.5-2ZM273.5 167q6.4.1 8.5 4.5l1 6-4.5 5.5-5 1-5.5-3.5-1-8 3.5-4.5 3-1ZM292.5 177h6l3.5 2 2 7.5-3.5 5.5-8 1-3.5-2.5-2-6 5.5-7.5ZM201.5 180l2.5 1.5 4.5 11.5 9-4h4.5l3 10.5-12 6 4 12-11.5 4.5-4.5-12-12.5 4-2.5-2.5-2-10.5q7.2-.5 12-4.5l-4-9v-3l9.5-4.5Z"/></svg>