<?xml version="1.0" encoding="utf-8" ?><svg xmlns="http://www.w3.org/2000/svg" xmlns:xlink="http://www.w3.org/1999/xlink" width="978" height="544" viewBox="0 0 978 544"><path fill="white" d="M0 0L978 0L978 544L0 544L0 0Z"/><path fill="#232021" d="M515.635 188.345C518.214 189.306 523.437 191.556 525.507 193.337C528.214 195.666 526.457 197.281 526.505 199.284C531.347 200.059 550.436 179.923 557.987 183.329C568.534 188.087 591.237 226.361 602.44 202.405C606.015 194.76 608.268 188.758 605.417 180.178C602.147 170.338 599.081 159.907 592.072 151.934C586.841 145.844 576.96 137.552 573.89 130.523C570.335 122.383 596.604 97.7983 602.255 96.0018L602.914 96.361C603.128 97.9498 601.705 100.252 600.932 101.778C619.364 101.722 636.562 99.7169 654.909 103.898C658.572 104.733 671.894 106.16 673.529 109.638C672.064 111.314 671.292 110.343 669.769 111.727C680.314 119.944 694.314 125.568 704.06 135.408C706.393 137.764 714.204 144.182 714.375 147.53L713.65 147.945C708.351 146.903 691.971 138.104 684.783 135.868C702.7 150.601 716.041 166.001 725.85 187.138C729.399 194.784 731.341 201.887 733.075 210.1C733.748 213.291 736.664 218.903 732.794 220.274C731.64 219.713 727.06 212.685 725.575 210.893C720.72 205.035 717.469 202.702 711.053 198.799C715.215 212.019 720.217 225.492 723.861 238.705L653.99 238.708L641.339 238.705C641.53 229.485 639.66 217.489 638.58 208.256C635.805 186.475 628.244 167.143 615.696 149.004C613.609 145.987 593.048 119.941 589.006 133.751C588.289 136.202 596.622 140.265 599.461 142.821C606.038 148.745 611.47 156.409 615.69 164.29C629.415 187.375 631.481 212.42 633.221 238.47L458.764 238.702C434.25 238.417 409.734 238.332 385.218 238.445C373.333 238.446 357.248 237.991 345.645 238.782C345.769 203.406 356.038 156.708 387.892 136.87C388.819 136.293 389.865 134.569 389.69 133.56C387.911 123.306 374.399 136.014 372.144 138.328C345.819 165.348 338.631 202.167 337.447 238.697L254.722 238.704C258.773 225.287 263.449 212.366 267.516 198.866C258.617 204.19 253.553 209.39 247.947 218.076C247.191 219.247 246.623 220.104 245.4 220.305L244.521 219.555C243.473 216.094 245.887 210.031 246.628 206.261C250.195 188.109 261.834 168.63 273.833 154.753C279.217 148.527 287.686 141.362 293.743 135.713C288.069 137.951 268.89 147.313 264.6 147.902L263.995 147.38C265.532 139.582 297.544 118.224 305.954 113.856C306.98 113.323 308.432 112.604 308.996 111.629C307.301 111.041 306.61 110.865 305.112 109.851L305.071 109.172C306.927 107.272 313.096 106.073 315.782 105.404C336.967 100.126 356.154 101.286 377.678 101.781C376.697 99.6555 375.742 97.7191 375.061 95.4688C381.878 96.6189 393.297 111.061 398.473 116.048C414.098 131.101 398.067 138.871 387.771 150.503C384.069 154.69 381.073 159.452 378.902 164.602C374.822 174.035 369.5 186.871 373.815 196.776C376.954 203.98 380.415 213.984 390.276 209.155C402.166 203.53 410.17 190.639 419.993 183.462C426.514 178.697 445.882 198.701 451.502 199.193L452.087 198.487C451.859 197.313 451.835 196.801 451.805 195.603C453.37 192.049 459.323 189.919 462.911 188.393C462.784 190.256 462.425 192.338 463.285 193.931C464.464 195.205 466.798 195.449 468.577 195.827C468.819 195.492 469.071 195.165 469.332 194.845C471.724 191.888 472.854 191.742 476.534 191.367L476.512 181.387C473.424 178.076 474.843 164.062 475.692 159.466C474.767 158.391 471.343 156.349 470.548 154.941C469.711 153.461 471.04 151.671 470.435 149.986C468.832 145.515 466.511 141.534 465.526 136.851C469.463 131.365 484.122 118.409 489.422 113.659C495.855 120.114 508.812 129.982 513.284 137.459C512.245 140.082 510.893 143.355 510.07 146.001C507.775 153.377 508.955 154.508 503.145 159.461C503.435 161.47 503.795 163.727 503.931 165.746C504.523 174.551 501.992 182.514 502.245 191.318C503.866 191.57 505.611 191.966 507.229 192.301C510.721 196.715 511.08 195.97 516.067 194.227C515.949 192.264 515.805 190.304 515.635 188.345Z"/><path fill="#232021" d="M472.175 303.291L506.397 303.312C507.245 306.771 509.806 316.589 509.641 319.574C509.181 326.102 506.28 331.665 505.334 338.248C502.221 359.914 503.027 382.396 504.289 404.2C504.643 410.318 506.925 417.619 506.32 423.44C505.87 427.777 503.169 434.785 501.752 439.035L494.118 461.847C492.679 466.34 491.118 470.793 489.437 475.201C483.233 461.009 477.366 439.346 472.51 424.257C471.882 422.305 474.237 405.214 474.529 401.594C475.221 391.791 475.566 381.967 475.566 372.14C475.582 360.341 475.047 348.405 473.16 336.733C472.398 332.024 469 323.799 469.035 319.514C469.062 316.227 471.413 306.822 472.175 303.291Z"/><path fill="#232021" d="M641.386 303.297L698.317 303.321C697.158 316.68 695.493 325.764 692.339 338.773C688.389 355.067 685.276 371.443 677.606 386.634C676.837 388.247 674.665 393.127 673.367 394.162C671.698 393.637 672.275 394.047 671.221 392.569C670.729 385.717 671.012 377.181 670.969 370.15C670.864 362.233 670.55 354.319 670.029 346.417C669.461 343.226 670.731 342.676 669.214 339.962C667.874 347.438 667.03 356.12 664.735 363.178C659.466 379.377 655.052 395.436 646.357 410.202C644.297 413.699 634.571 439.39 630.026 438.681C629.324 435.676 632.13 427.945 632.674 424.218C633.414 419.155 633.727 414.407 634.163 409.329C637.378 374.045 639.786 338.692 641.386 303.297Z"/><path fill="#EBEFF0" d="M670.303 332.8C670.439 336.247 670.853 343.368 670.029 346.417C669.461 343.226 670.731 342.676 669.214 339.962C669.506 337.27 669.713 335.476 670.303 332.8Z"/><path fill="#232021" d="M280.412 303.302L337.364 303.311C338.186 339.195 342.288 374.976 344.618 410.77C344.943 415.761 348.959 436.445 348.008 438.331C343.657 436.911 330.499 406.421 326.835 399.547C322.596 391.005 320.549 382.002 317.218 373.246C312.06 359.685 310.814 346.915 308.316 332.763C307.611 341.628 308.745 388.592 306.563 393.999C306.156 394.039 305.898 394.186 305.567 393.914C296.568 386.514 285.029 335.807 282.654 322.473C281.528 316.147 280.982 309.698 280.412 303.302Z"/><path fill="#232021" d="M324.761 246.361L346.956 246.327C349.412 255.527 351.633 266.163 353.84 275.55L358.397 294.959C352.804 295.083 346.854 295.009 341.236 295.025L339.511 286.051L318.737 286.032L313.825 295.026L280.177 295.061C278.885 289.618 277.354 283.958 275.969 278.517L259.542 278.514L256.699 294.992C251.31 295.073 245.679 295 240.272 295.001C242.633 279.235 245.976 262.157 248.742 246.342L292.964 246.348L301.088 254.418C300.504 258.757 299.707 262.933 298.906 267.231C296.885 269.646 293.315 272.995 290.981 275.304L293.212 283.652L298.66 283.73C297.91 287.433 297.264 291.394 296.587 295.131C306.138 279.505 315.29 262.303 324.761 246.361Z"/><path fill="white" d="M263.278 257.012C267.127 257.021 271.718 257.003 275.519 256.734C284.791 256.078 284.889 259.625 281.904 267.338C275.356 267.509 268.122 267.355 261.52 267.352C262.2 264.162 262.742 260.279 263.278 257.012Z"/><path fill="white" d="M333.555 258.733C334.807 259.842 336.772 271.988 337.238 274.44L328.427 274.452C326.988 274.527 326.74 274.638 325.515 274.008C325.831 272.687 332.528 260.621 333.555 258.733Z"/><path fill="#232021" d="M174.358 246.369L243.98 246.36C243.414 250.316 242.578 254.487 241.853 258.438L224.189 258.444C222.819 269.632 219.876 283.657 217.964 295.046L201.36 294.979C203.758 284.292 205.951 269.565 207.931 258.485L201.402 258.416L190.28 258.384L192.089 247.962L169.785 270.249L183.648 294.935C177.69 295.1 171.272 295.019 165.28 295.051L157.501 280.492C153.044 285.164 148.719 290.213 144.242 294.975C138.142 295.213 130.615 294.996 124.41 294.98C131.989 286.458 140.732 278.44 148.443 269.831C144.26 262.319 139.444 254.057 135.65 246.424C141.498 246.185 148.377 246.354 154.316 246.373C156.455 249.962 159.192 256.128 161.075 260.052C165.458 255.448 169.886 250.887 174.358 246.369Z"/><path fill="#232021" d="M788.762 246.347L833.4 246.356C836.06 249.174 839.1 252.111 841.853 254.88C839.865 265.173 838.106 276.223 836.289 286.595L830.264 292.721L827.905 295.009L780.228 294.996C783.262 279.011 785.946 262.416 788.762 246.347Z"/><path fill="white" d="M803.147 257.962C808.01 257.911 819.772 257.174 823.43 259.111C825.145 261.517 823.296 266.276 822.811 269.288C822.151 273.385 821.83 280.073 819.155 283.156C816.499 283.924 802.156 283.54 798.69 283.499L803.147 257.962Z"/><path fill="#232021" d="M727.04 246.334L771.275 246.36C774.019 249.058 776.714 251.805 779.36 254.599C777.478 266.958 778.142 266.936 769.248 275.431L771.306 283.612L776.801 283.727C776.304 287.355 775.491 291.407 774.84 295.046L761.078 295.032L759.125 294.893C757.268 293.135 754.906 281.555 754.133 278.513L737.835 278.522C736.771 283.321 735.773 290.084 734.906 295.043L718.376 294.97C721.695 279.908 724.009 261.885 727.04 246.334Z"/><path fill="white" d="M741.633 256.992C744.914 257.025 748.706 257.053 751.94 256.815C762.519 256.038 763.11 257.55 760.36 267.032C757.561 267.679 743.47 267.395 739.926 267.375C740.325 263.9 741.008 260.436 741.633 256.992Z"/><path fill="#232021" d="M650.125 246.339C655.049 246.303 659.974 246.34 664.897 246.449C661.836 262.463 659.122 278.948 656.33 295.023L636.738 295.015C632.859 285.743 627.278 274.345 622.928 265.264C620.968 273.03 618.999 286.752 617.65 294.988C612.801 295.088 607.696 294.997 602.826 294.988C604.65 282.627 607.191 270.271 609.235 257.938C609.869 254.109 610.558 250.18 611.444 246.411C617.788 246.306 624.134 246.302 630.478 246.401C634.273 252.692 641.303 268.839 644.74 276.242C646.432 266.256 648.227 256.288 650.125 246.339Z"/><path fill="#232021" d="M856.327 246.358C868.491 246.332 881.118 246.137 893.245 246.442C896.019 248.544 898.847 251.614 901.326 254.15L899.785 262.324C896.516 262.332 886.345 262.855 883.941 261.909C883.507 260.644 883.757 259.779 883.936 258.442L883.354 257.763C879.227 257.044 868.923 257.436 864.178 257.488L863.199 263.473L890.953 266.158L898.046 273.219C897.309 278.002 896.604 282.269 895.604 287.017C893.498 289.45 889.947 293.094 887.449 295.023L849.878 295.014L842.168 287.4L843.582 278.99L860.005 278.97C859.763 280.596 859.353 282.084 859.86 283.589C862.569 284.517 876.175 284.008 879.753 283.948L880.823 277.712C872.172 277.039 861.378 276.022 852.854 274.877L845.901 268.027C847.632 255.286 847.019 255.169 856.327 246.358Z"/><path fill="#232021" d="M673.714 246.353L719.355 246.382C718.911 249.987 718.132 253.815 717.465 257.406L688.248 257.43L686.961 265.05L713.389 265.053L711.551 275.995L688.014 276.016C686.793 275.954 686.631 275.956 685.486 276.379C684.183 278.264 684.018 281.597 683.656 284.04L713.074 284.037L711.227 295.032L665.217 295.004L673.714 246.353Z"/><path fill="#232021" d="M85.8301 246.342L131.549 246.401L129.626 257.4L100.39 257.438L99.1248 265.048L125.56 265.053L123.756 275.989L100.164 276.016C95.6593 275.86 96.401 280.072 95.7349 284.043L125.172 284.065C124.531 287.707 123.938 291.357 123.391 295.014L77.3115 294.992C80.3625 279.076 83.0282 262.362 85.8301 246.342Z"/><path fill="#232021" d="M534.025 246.368C548.782 246.06 564.766 246.297 579.598 246.398C579.053 250.238 578.443 253.595 577.683 257.4L548.46 257.435L547.254 265.035L573.763 265.046C573.075 268.664 572.454 272.363 571.806 275.995L548.573 276.018C547.142 275.958 546.861 275.848 545.616 276.435C544.307 278.309 544.28 281.596 544.003 284.057L573.171 284.064C572.694 287.656 572.007 291.413 571.403 295.002L525.447 294.972C528.221 278.756 531.08 262.554 534.025 246.368Z"/><path fill="#232021" d="M483.524 246.391C497.858 246.036 513.518 246.355 527.956 246.36C527.536 249.857 526.649 253.927 525.966 257.434L497.835 257.433C497.31 260.355 496.82 263.282 496.364 266.214C504.804 266.331 513.198 266.175 521.694 266.342L520.689 272.6L519.801 277.198C511.503 277.424 502.552 277.3 494.207 277.344C493.347 283.255 492.356 289.145 491.235 295.012L474.884 295.012C476.929 282.241 480.532 258.52 483.524 246.391Z"/><path fill="#232021" d="M438.13 246.334L475.895 246.352C475.512 249.705 474.526 254.259 473.885 257.666L463.177 257.68L458.693 284.045L469.19 284.069C468.928 287.145 467.986 291.82 467.434 294.987C455.432 295.317 441.715 295.039 429.62 294.977C430.268 291.402 430.821 287.628 431.407 284.026L442.11 284.066C443.805 277.1 445.476 265.134 446.761 257.717C443.238 257.747 439.714 257.669 436.196 257.481C436.681 253.955 437.503 249.884 438.13 246.334Z"/><path fill="#232021" d="M392.598 246.373C398.046 246.283 403.496 246.313 408.943 246.462L402.344 283.162C410.784 283.108 419.226 283.151 427.665 283.289C427.367 285.642 426.529 293.513 425.337 295.024L383.902 295.04L389.091 264.924C390.027 259.526 391.192 251.417 392.598 246.373Z"/><path fill="#232021" d="M249.128 303.306L265.519 303.33C262.604 311.345 256.913 325.699 255.225 333.491C254.506 336.817 255.194 341.533 253.255 343.549C246.586 342.453 248.944 309.427 249.128 303.306Z"/><path fill="#232021" d="M713.149 303.297L729.486 303.306C730.146 318.605 731.261 326.845 727.86 341.867C727.141 343.049 727.043 343.2 725.835 343.859L724.98 343.558C723.898 341.19 724.098 334.803 723.149 331.63C720.298 322.093 716.601 312.646 713.149 303.297Z"/></svg>